<svg width="19" height="19" viewBox="0 0 19 19" fill="none" xmlns="http://www.w3.org/2000/svg">
<g clip-path="url(#clip0_272_2132)">
<path d="M8.82422 1.49268C9.8218 1.49268 10.7253 1.89743 11.3793 2.55136C12.0332 3.2053 12.438 4.10884 12.438 5.10642C12.438 6.10401 12.0332 7.00755 11.3793 7.66148C10.7253 8.31542 9.8218 8.72017 8.82422 8.72017C7.82817 8.72017 6.92533 8.31542 6.27126 7.66148C5.61732 7.00755 5.21033 6.10401 5.21033 5.10642C5.21033 4.10884 5.61508 3.2053 6.26901 2.55136C6.28023 2.54015 6.29186 2.52936 6.30377 2.51927C6.95504 1.88425 7.84457 1.49268 8.82422 1.49268ZM10.5403 3.3903C10.1013 2.95121 9.49441 2.67946 8.82422 2.67946C8.16649 2.67946 7.57002 2.94028 7.13331 3.36325L7.10795 3.3903C6.66886 3.82938 6.39711 4.43623 6.39711 5.10642C6.39711 5.77662 6.66886 6.38346 7.10795 6.82255C7.5469 7.2608 8.15318 7.53339 8.82422 7.53339C9.49441 7.53339 10.1013 7.26164 10.5403 6.82255C10.9794 6.38346 11.2512 5.77662 11.2512 5.10642C11.2512 4.43623 10.9794 3.82938 10.5403 3.3903Z" fill="#D86B24"/>
<path d="M9.00782 18.1051H2.68008C2.50685 18.1051 2.34162 18.0705 2.18815 18.0025C2.16503 17.9923 2.14289 17.9808 2.12186 17.9682C1.99503 17.9023 1.88123 17.8146 1.78172 17.7049C1.66582 17.5773 1.57935 17.4323 1.52581 17.2705C1.47297 17.1115 1.45447 16.9443 1.47115 16.7727C1.65825 14.8458 2.56782 13.1301 3.92502 11.9C5.27032 10.6806 7.05386 9.9375 9.00782 9.9375C10.2935 9.9375 11.5056 10.2591 12.567 10.8266C12.7023 10.8989 12.7917 11.0117 12.8312 11.1599C12.8707 11.3082 12.8493 11.4504 12.768 11.5805L12.7066 11.6787C12.5578 11.9168 12.2517 11.999 12.0036 11.8672C11.1108 11.3931 10.091 11.1243 9.00782 11.1243C7.35518 11.1243 5.85011 11.7498 4.71771 12.7762C3.57325 13.8135 2.80621 15.2599 2.6484 16.884L2.64756 16.8997C2.64112 16.8925 2.64784 16.9008 2.64756 16.8997L2.65681 16.9109L2.68008 16.9183H9.00782H12.2974C12.5914 16.9183 12.8312 17.1581 12.8312 17.4522V17.5713C12.8312 17.8653 12.5914 18.1051 12.2974 18.1051H9.00782ZM2.12186 17.9682C1.99293 17.891 1.90211 17.7702 1.86021 17.6334L2.12186 17.9682Z" fill="#D86B24"/>
<path fill-rule="evenodd" clip-rule="evenodd" d="M12.7587 13.9221H13.1055H17.1927H17.5396C17.866 13.9221 18.1328 14.189 18.1328 14.5155C18.1328 14.8421 17.866 15.1088 17.5396 15.1088H17.1927H13.1055H12.7587C12.4322 15.1088 12.1654 14.8419 12.1654 14.5154C12.1654 14.1888 12.4322 13.9221 12.7587 13.9221Z" fill="#D86B24"/>
<path fill-rule="evenodd" clip-rule="evenodd" d="M14.5558 16.9059V16.559V12.4719V12.125C14.5558 11.7986 14.8226 11.5317 15.1492 11.5317C15.4757 11.5317 15.7424 11.7986 15.7424 12.125V12.4719V16.559V16.9059C15.7424 17.2323 15.4756 17.4992 15.149 17.4992C14.8225 17.4992 14.5558 17.2323 14.5558 16.9059Z" fill="#D86B24"/>
</g>
<defs>
<clipPath id="clip0_272_2132">
<rect width="17.799" height="17.799" fill="white" transform="translate(0.899475 0.899414)"/>
</clipPath>
</defs>
</svg>
