<svg width="10" height="7" viewBox="0 0 10 7" fill="none" xmlns="http://www.w3.org/2000/svg">
<path fill-rule="evenodd" clip-rule="evenodd" d="M0.833156 6.5C0.668364 6.49996 0.507282 6.45107 0.370274 6.3595C0.233266 6.26793 0.126483 6.1378 0.0634243 5.98555C0.000365935 5.8333 -0.0161368 5.66577 0.0160029 5.50414C0.0481425 5.34251 0.127482 5.19404 0.243989 5.0775L4.41066 0.910834C4.56693 0.754608 4.77885 0.666845 4.99982 0.666845C5.22079 0.666845 5.43272 0.754608 5.58899 0.910834L9.75566 5.0775C9.87216 5.19404 9.9515 5.34251 9.98364 5.50414C10.0158 5.66577 9.99928 5.8333 9.93622 5.98555C9.87316 6.1378 9.76638 6.26793 9.62937 6.3595C9.49236 6.45107 9.33128 6.49996 9.16649 6.5H0.833156Z" fill="#B6B6B6"/>
</svg>
