<svg width="20" height="20" viewBox="0 0 20 20" fill="none" xmlns="http://www.w3.org/2000/svg">
<path fill-rule="evenodd" clip-rule="evenodd" d="M7.1875 3.75V1.875H12.8125V3.75H7.1875ZM5.3125 3.75V1.25C5.3125 0.918479 5.4442 0.600537 5.67862 0.366117C5.91304 0.131696 6.23098 0 6.5625 0L13.4375 0C13.769 0 14.087 0.131696 14.3214 0.366117C14.5558 0.600537 14.6875 0.918479 14.6875 1.25V3.75H17.8125C18.0611 3.75 18.2996 3.84877 18.4754 4.02459C18.6512 4.2004 18.75 4.43886 18.75 4.6875C18.75 4.93614 18.6512 5.1746 18.4754 5.35041C18.2996 5.52623 18.0611 5.625 17.8125 5.625H17.3563L16.4275 17.6912C16.3793 18.3193 16.0958 18.906 15.6337 19.3341C15.1716 19.7621 14.5649 20 13.935 20H6.065C5.4351 20 4.82842 19.7621 4.36631 19.3341C3.90419 18.906 3.62069 18.3193 3.5725 17.6912L2.64375 5.625H2.1875C1.93886 5.625 1.7004 5.52623 1.52459 5.35041C1.34877 5.1746 1.25 4.93614 1.25 4.6875C1.25 4.43886 1.34877 4.2004 1.52459 4.02459C1.7004 3.84877 1.93886 3.75 2.1875 3.75H5.3125ZM4.525 5.625H15.475L14.5575 17.5475C14.5455 17.7045 14.4748 17.8511 14.3594 17.9582C14.244 18.0653 14.0924 18.1248 13.935 18.125H6.065C5.90758 18.1248 5.75603 18.0653 5.64062 17.9582C5.52522 17.8511 5.45446 17.7045 5.4425 17.5475L4.525 5.625Z" fill="#FF0C0C"/>
</svg> 