<svg width="24" height="24" viewBox="0 0 24 24" fill="none" xmlns="http://www.w3.org/2000/svg">
<path d="M15.6 21.9531H4.39999C3.0768 21.9531 2 20.8763 2 19.5531V8.35312C2 7.02993 3.0768 5.95312 4.39999 5.95312H10.8C11.2424 5.95312 11.6 6.31157 11.6 6.75322C11.6 7.19472 11.2424 7.55317 10.8 7.55317H4.39999C3.95834 7.55317 3.60004 7.91235 3.60004 8.35312V19.5531C3.60004 19.9939 3.95834 20.3531 4.39999 20.3531H15.6C16.0415 20.3531 16.4 19.9939 16.4 19.5531V13.1531C16.4 12.7116 16.7575 12.3532 17.1999 12.3532C17.6423 12.3532 18 12.7116 18 13.1531V19.5531C18 20.8763 16.9232 21.9531 15.6 21.9531Z" fill="#607D8B"/>
<path d="M15.6862 5.51465L9.4224 11.7783C9.36703 11.8337 9.32977 11.9041 9.31397 11.9801L8.75429 14.7795C8.72819 14.9093 8.76936 15.0431 8.86272 15.1373C8.93795 15.2125 9.03928 15.2528 9.14307 15.2528C9.16829 15.2528 9.19453 15.2505 9.22062 15.245L12.0192 14.6853C12.0967 14.6694 12.1672 14.6322 12.2218 14.5767L18.4855 8.31307L15.6862 5.51465Z" fill="#42A5F5"/>
<path d="M20.42 3.57893C19.6483 2.80702 18.3927 2.80702 17.6215 3.57893L16.5259 4.67452L19.3244 7.47309L20.42 6.37735C20.7937 6.00452 20.9996 5.50731 20.9996 4.9785C20.9996 4.44969 20.7937 3.95249 20.42 3.57893Z" fill="#42A5F5"/>
</svg> 