<svg width="7" height="12" viewBox="0 0 7 12" fill="none" xmlns="http://www.w3.org/2000/svg">
<path d="M3.68289 0.75C2.82934 0.75129 2.01103 1.1863 1.40747 1.95961C0.80391 2.73292 0.464389 3.78138 0.463382 4.875C0.46236 5.76871 0.690206 6.63817 1.11197 7.35C1.11197 7.35 1.19977 7.49813 1.21411 7.5195L3.68289 11.25L6.15285 7.51763C6.16572 7.49775 6.25382 7.35 6.25382 7.35L6.25411 7.34888C6.67567 6.63735 6.90341 5.7683 6.90241 4.875C6.9014 3.78138 6.56188 2.73292 5.95832 1.95961C5.35476 1.1863 4.53645 0.75129 3.68289 0.75ZM3.68289 6.375C3.45135 6.375 3.225 6.28703 3.03247 6.1222C2.83995 5.95738 2.68989 5.72311 2.60128 5.44903C2.51267 5.17494 2.48949 4.87334 2.53466 4.58236C2.57983 4.29139 2.69133 4.02412 2.85506 3.81434C3.01879 3.60456 3.2274 3.4617 3.4545 3.40382C3.6816 3.34594 3.91699 3.37565 4.13091 3.48918C4.34484 3.60271 4.52768 3.79497 4.65632 4.04164C4.78496 4.28832 4.85363 4.57833 4.85363 4.875C4.85324 5.27267 4.72977 5.65391 4.5103 5.93511C4.29083 6.21631 3.99327 6.3745 3.68289 6.375Z" fill="#1A1A1A" fill-opacity="0.9"/>
</svg>
