<svg width="24" height="24" viewBox="0 0 24 24" fill="none" xmlns="http://www.w3.org/2000/svg">
<rect width="24" height="24" rx="12" fill="#1A1A1A"/>
<path d="M19.272 18.4V20H4.72724V18.4H5.45448V12.9936C5.00677 12.6649 4.63976 12.2196 4.38603 11.6974C4.1323 11.1752 3.9997 10.5921 4 10C4 9.3384 4.1629 8.7008 4.46034 8.1576L6.43262 4.4C6.49644 4.27839 6.58825 4.1774 6.6988 4.10718C6.80935 4.03697 6.93475 4 7.06241 4H16.9376C17.0652 4 17.1907 4.03697 17.3012 4.10718C17.4118 4.1774 17.5036 4.27839 17.5674 4.4L19.5331 8.1456C19.8371 8.7008 20 9.3376 20 10C20 11.248 19.4226 12.348 18.5455 12.9936V18.4H19.272ZM7.48275 5.6L5.71338 8.9704C5.58537 9.20713 5.50319 9.47039 5.472 9.74369C5.4408 10.017 5.46126 10.2944 5.53209 10.5586C5.60292 10.8228 5.72259 11.0681 5.88361 11.279C6.04463 11.4899 6.24352 11.662 6.46782 11.7844C6.69211 11.9069 6.93698 11.977 7.18707 11.9905C7.43716 12.0039 7.68709 11.9604 7.92118 11.8627C8.15527 11.7649 8.36848 11.615 8.54745 11.4224C8.72642 11.2297 8.86729 10.9985 8.96123 10.7432C9.20485 10.0736 10.0666 10.0736 10.311 10.7432C10.4457 11.1147 10.6787 11.4333 10.9797 11.6577C11.2807 11.8821 11.636 12.002 11.9996 12.002C12.3633 12.002 12.7185 11.8821 13.0196 11.6577C13.3206 11.4333 13.5535 11.1147 13.6883 10.7432C13.9319 10.0736 14.7937 10.0736 15.038 10.7432C15.1324 10.9988 15.2738 11.2301 15.4534 11.4226C15.633 11.6152 15.8468 11.7648 16.0814 11.862C16.3161 11.9593 16.5665 12.0021 16.8169 11.9877C17.0673 11.9734 17.3123 11.9023 17.5366 11.7787C17.7608 11.6552 17.9593 11.482 18.1198 11.27C18.2802 11.058 18.399 10.8118 18.4688 10.5469C18.5385 10.2819 18.5577 10.0039 18.5251 9.73044C18.4925 9.45694 18.4088 9.19381 18.2794 8.9576L16.5158 5.6H7.48275Z" fill="white"/>
<path d="M10.6984 14.9826L10.7 14.9628V14.9429C10.7 14.8037 10.7383 14.6617 10.7935 14.5711C10.8194 14.5287 10.8409 14.5106 10.8501 14.5046C10.8554 14.5011 10.8576 14.5 10.8667 14.5C10.8966 14.5 10.9967 14.5229 11.1193 14.7308C11.2354 14.9276 11.3 15.1828 11.3 15.3714C11.3 15.5106 11.2617 15.6526 11.2065 15.7432C11.1806 15.7856 11.1591 15.8036 11.1499 15.8097C11.1446 15.8132 11.1424 15.8143 11.1333 15.8143C11.0673 15.8143 10.9595 15.7738 10.8474 15.5835C10.736 15.3947 10.6848 15.1538 10.6984 14.9826ZM13.2556 14.9857C13.2556 15.1474 13.1939 15.391 13.0771 15.5851C12.9541 15.7896 12.8537 15.8143 12.8222 15.8143C12.8131 15.8143 12.8109 15.8132 12.8057 15.8097C12.7964 15.8036 12.7749 15.7856 12.7491 15.7432C12.6938 15.6526 12.6556 15.5106 12.6556 15.3714C12.6556 15.2098 12.7172 14.9661 12.834 14.772C12.957 14.5675 13.0574 14.5429 13.0889 14.5429C13.098 14.5429 13.1002 14.544 13.1054 14.5474C13.1147 14.5535 13.1362 14.5716 13.162 14.614C13.2173 14.7045 13.2556 14.8466 13.2556 14.9857ZM13.9444 17.2143C13.9444 17.0395 14.0124 16.8018 14.1347 16.6154C14.2538 16.4339 14.3588 16.3908 14.4123 16.3862C14.4169 16.3905 14.4242 16.3982 14.4332 16.4111C14.4683 16.4619 14.5 16.5526 14.5 16.6571C14.5 16.832 14.432 17.0696 14.3097 17.2561C14.1828 17.4496 14.0717 17.4857 14.0222 17.4857C14.0179 17.4857 14.0148 17.4855 14.0127 17.4853C14.0104 17.4828 14.0067 17.4785 14.002 17.4713C13.9751 17.4301 13.9444 17.3405 13.9444 17.2143ZM9.57778 16.3857C9.59886 16.3857 9.71189 16.4136 9.85267 16.6214C9.98364 16.8148 10.0556 17.051 10.0556 17.2143C10.0556 17.3405 10.0249 17.4301 9.99801 17.4713C9.9933 17.4785 9.98964 17.4828 9.98735 17.4853C9.98523 17.4855 9.98211 17.4857 9.97778 17.4857C9.95669 17.4857 9.84367 17.4579 9.70288 17.25C9.57192 17.0566 9.5 16.8205 9.5 16.6571C9.5 16.5309 9.53068 16.4413 9.55755 16.4001C9.56225 16.3929 9.56591 16.3886 9.56821 16.3862C9.57033 16.3859 9.57344 16.3857 9.57778 16.3857ZM9.99101 17.4846C9.99102 17.4846 9.99078 17.4847 9.99025 17.4848L9.99101 17.4846ZM9.56455 16.3868C9.56454 16.3868 9.56477 16.3867 9.5653 16.3866L9.56455 16.3868ZM10.3889 19.4429C10.3889 19.1488 10.598 18.6853 10.9731 18.265C11.1516 18.065 11.3473 17.8987 11.5347 17.7857C11.727 17.6697 11.8785 17.6286 11.9778 17.6286C12.0771 17.6286 12.2286 17.6697 12.4209 17.7857C12.6082 17.8987 12.804 18.065 12.9825 18.265C13.3575 18.6853 13.5667 19.1488 13.5667 19.4429C13.5667 19.4531 13.5662 19.4612 13.5656 19.4675C13.5514 19.4732 13.528 19.4806 13.4925 19.4868C13.4424 19.4956 13.3816 19.5 13.3111 19.5C13.1756 19.5 13.0384 19.4533 12.8117 19.3636C12.8001 19.359 12.788 19.3542 12.7756 19.3493C12.5811 19.2718 12.2934 19.1571 11.9778 19.1571C11.6451 19.1571 11.3502 19.2687 11.1419 19.3475C11.13 19.352 11.1185 19.3564 11.1072 19.3606C10.8726 19.4489 10.7193 19.5 10.5556 19.5C10.4953 19.5 10.4493 19.4944 10.4166 19.4867C10.4057 19.4841 10.3973 19.4815 10.391 19.4793C10.3899 19.4708 10.3889 19.4589 10.3889 19.4429ZM13.5624 19.4857C13.5624 19.4856 13.5625 19.4852 13.5628 19.4845L13.5624 19.4857Z" fill="#1A1A1A" stroke="#1A1A1A"/>
</svg>
