<svg width="21" height="20" viewBox="0 0 21 20" fill="none" xmlns="http://www.w3.org/2000/svg">
<path d="M18.1738 17.4999L14.5546 13.8808M14.5546 13.8808C15.1737 13.2617 15.6647 12.5267 15.9998 11.7179C16.3348 10.909 16.5073 10.0421 16.5073 9.16659C16.5073 8.29109 16.3348 7.42416 15.9998 6.61531C15.6647 5.80645 15.1737 5.0715 14.5546 4.45243C13.9355 3.83335 13.2006 3.34228 12.3917 3.00724C11.5829 2.6722 10.7159 2.49976 9.84042 2.49976C8.96492 2.49976 8.09799 2.6722 7.28913 3.00724C6.48028 3.34228 5.74533 3.83335 5.12626 4.45243C3.87598 5.7027 3.17358 7.39844 3.17358 9.16659C3.17358 10.9347 3.87598 12.6305 5.12626 13.8808C6.37653 15.131 8.07227 15.8334 9.84042 15.8334C11.6086 15.8334 13.3043 15.131 14.5546 13.8808Z" stroke="#1A1A1A" stroke-width="2" stroke-linecap="round" stroke-linejoin="round"/>
</svg>
